<?xml version="1.0" standalone="no"?>
<!DOCTYPE svg PUBLIC "-//W3C//DTD SVG 20010904//EN"
 "http://www.w3.org/TR/2001/REC-SVG-20010904/DTD/svg10.dtd">
<svg version="1.0" xmlns="http://www.w3.org/2000/svg"
 width="500.000000pt" height="500.000000pt" viewBox="0 0 500.000000 500.000000"
 preserveAspectRatio="xMidYMid meet">
<metadata>
Created by potrace 1.14, written by Peter Selinger 2001-2017
</metadata>
<g transform="translate(0.000000,500.000000) scale(0.100000,-0.100000)"
fill="#B98BF9" stroke="none">
<path d="M4542 2757 c-16 -19 -165 -604 -158 -622 10 -28 44 -17 55 18 32 103
151 591 147 603 -7 18 -30 18 -44 1z"/>
<path d="M563 2716 c-17 -8 -36 -23 -42 -34 -18 -34 -23 -96 -12 -140 17 -63
45 -76 169 -82 123 -6 135 -15 130 -95 -4 -63 -24 -75 -130 -75 -92 0 -125 11
-134 44 -7 30 -33 42 -51 23 -20 -19 -8 -59 28 -93 28 -27 36 -29 133 -32 170
-7 216 23 216 141 0 111 -46 147 -188 147 -99 0 -117 11 -117 75 0 64 17 75
122 75 53 0 86 -4 93 -12 5 -7 18 -24 28 -37 12 -16 25 -22 35 -18 26 10 20
53 -12 89 -29 33 -30 33 -133 36 -72 1 -112 -2 -135 -12z"/>
<path d="M1057 2724 c-4 -4 -7 -115 -7 -246 0 -204 2 -239 15 -244 34 -14 45
14 45 117 l0 99 150 0 149 0 3 -101 c3 -86 6 -104 21 -113 15 -9 21 -7 33 8
11 16 14 64 14 242 0 190 -2 223 -16 235 -11 9 -20 10 -32 2 -14 -8 -18 -29
-20 -105 -3 -115 8 -108 -174 -108 l-127 0 -3 108 c-3 99 -5 107 -23 110 -12
2 -24 0 -28 -4z"/>
<path d="M1666 2714 c-3 -9 -6 -116 -6 -239 0 -177 3 -225 14 -234 9 -8 61
-11 162 -9 l149 3 3 28 3 27 -130 0 -131 0 0 80 0 79 81 3 c66 2 84 6 93 21
19 31 -17 47 -101 47 l-73 0 0 75 0 74 128 3 127 3 3 28 3 27 -159 0 c-137 0
-161 -2 -166 -16z"/>
<path d="M2155 2718 c-3 -7 -4 -119 -3 -248 l3 -235 25 0 25 0 5 180 5 180 69
-102 c37 -56 74 -104 82 -107 27 -10 44 6 111 106 l68 100 5 -178 c5 -167 6
-179 24 -182 41 -8 46 20 46 242 0 116 -3 221 -6 234 -4 15 -14 22 -29 22 -19
0 -41 -27 -112 -135 l-89 -135 -90 132 c-64 96 -95 134 -112 136 -12 2 -24 -3
-27 -10z"/>
<path d="M2806 2714 c-12 -31 -7 -459 6 -472 10 -10 44 -17 50 -9 1 1 4 83 7
181 l6 180 64 -97 c35 -53 69 -101 77 -108 24 -20 49 1 119 104 l70 102 5
-180 5 -180 25 0 25 0 0 245 0 245 -25 0 c-21 0 -39 -21 -113 -133 l-88 -133
-89 136 c-74 111 -94 135 -114 135 -13 0 -27 -7 -30 -16z"/>
<path d="M3464 2717 c-2 -7 -3 -118 -2 -247 l3 -235 151 -3 c158 -3 183 3 168
41 -5 14 -27 17 -132 19 l-127 3 -3 78 -3 77 75 0 c88 0 106 5 106 31 0 24 -6
26 -102 34 l-78 7 0 74 0 74 124 0 c129 0 154 8 140 44 -5 14 -27 16 -160 16
-116 0 -156 -3 -160 -13z"/>
<path d="M3955 2718 c-3 -8 -4 -119 -3 -248 l3 -235 155 0 155 0 0 25 0 25
-130 5 -130 5 -3 78 -3 77 75 0 c90 0 106 5 106 36 0 22 -3 23 -87 26 l-88 3
-3 77 -3 77 133 3 133 3 0 25 0 25 -153 3 c-118 2 -154 0 -157 -10z"/>
<path d="M145 2558 c-149 -85 -149 -87 1 -173 117 -66 144 -73 144 -37 0 13
-26 33 -90 68 -49 27 -89 53 -87 57 1 5 41 29 87 55 62 35 85 53 85 67 0 34
-27 27 -140 -37z"/>
<path d="M4723 2603 c-8 -20 6 -31 111 -87 l78 -43 -96 -54 c-91 -51 -114 -77
-86 -94 6 -4 64 24 131 61 99 55 119 71 117 87 -2 15 -36 40 -113 84 -60 34
-116 62 -123 63 -7 0 -16 -8 -19 -17z"/>
</g>
</svg>
