<svg viewBox="0 0 500 500" fill="currentColor" xmlns="http://www.w3.org/2000/svg">
  <g clip-path="url(#clip0_119_10)">
    <path d="M358.01 227.5C366.048 241.423 366.048 258.577 358.01 272.5L323.99 331.423C315.952 345.346 301.096 353.923 285.019 353.923H216.981C200.904 353.923 186.048 345.346 178.01 331.423L143.99 272.5C135.952 258.577 135.952 241.423 143.99 227.5L178.01 168.577C186.048 154.654 200.904 146.077 216.981 146.077L285.019 146.077C301.096 146.077 315.952 154.654 323.99 168.577L358.01 227.5Z" fill="#E0D0F2"/>
    <path d="M28.9801 266.418C28.1168 267.947 26.8835 268.293 25.2801 267.454L4.41214 255.762C3.17881 255.047 2.56214 253.986 2.56214 252.58C2.56214 251.421 3.17881 250.483 4.41214 249.768L25.2801 238.15C26.8341 237.336 28.0675 237.681 28.9801 239.186C29.7941 240.765 29.4241 241.998 27.8701 242.886L8.18614 253.764V251.692L27.9441 262.792C29.4735 263.705 29.8188 264.913 28.9801 266.418ZM62.4189 277C58.2009 277 54.9079 276.149 52.5399 274.447C50.1966 272.745 48.7289 270.118 48.1369 266.566C48.0382 265.481 48.2602 264.667 48.8029 264.124C49.3456 263.581 50.1349 263.31 51.1709 263.31C52.2069 263.31 52.9592 263.557 53.4279 264.05C53.9212 264.543 54.2542 265.308 54.4269 266.344C54.7969 268.046 55.5862 269.218 56.7949 269.859C58.0282 270.476 59.9029 270.784 62.4189 270.784H73.0749C76.2569 270.784 78.4152 270.217 79.5499 269.082C80.7092 267.923 81.2889 265.777 81.2889 262.644C81.2889 259.462 80.6969 257.291 79.5129 256.132C78.3289 254.948 76.1829 254.356 73.0749 254.356H63.8989C59.2369 254.356 55.7712 253.221 53.5019 250.952C51.2572 248.658 50.1349 245.18 50.1349 240.518C50.1349 235.881 51.2449 232.44 53.4649 230.195C55.7096 227.95 59.1629 226.828 63.8249 226.828H72.6309C76.5529 226.828 79.6239 227.63 81.8439 229.233C84.0886 230.836 85.5069 233.291 86.0989 236.596C86.2469 237.657 86.0496 238.471 85.5069 239.038C84.9642 239.581 84.1502 239.852 83.0649 239.852C82.0782 239.852 81.3382 239.593 80.8449 239.075C80.3516 238.557 80.0309 237.805 79.8829 236.818C79.4882 235.363 78.7359 234.376 77.6259 233.858C76.5159 233.315 74.8509 233.044 72.6309 233.044H63.8249C60.8649 233.044 58.8792 233.574 57.8679 234.635C56.8566 235.671 56.3509 237.632 56.3509 240.518C56.3509 243.429 56.8689 245.427 57.9049 246.512C58.9409 247.597 60.9389 248.14 63.8989 248.14H73.0749C77.9342 248.14 81.5479 249.324 83.9159 251.692C86.3086 254.06 87.5049 257.711 87.5049 262.644C87.5049 267.553 86.3209 271.179 83.9529 273.522C81.5849 275.841 77.9589 277 73.0749 277H62.4189ZM107.92 277C107.106 277 106.379 276.692 105.737 276.075C105.121 275.434 104.812 274.706 104.812 273.892V229.936C104.812 229.122 105.121 228.407 105.737 227.79C106.379 227.149 107.106 226.828 107.92 226.828C108.734 226.828 109.45 227.149 110.066 227.79C110.708 228.407 111.028 229.122 111.028 229.936V248.51H141.22V229.936C141.22 229.122 141.529 228.407 142.145 227.79C142.762 227.149 143.49 226.828 144.328 226.828C145.142 226.828 145.858 227.149 146.474 227.79C147.116 228.407 147.436 229.122 147.436 229.936V273.892C147.436 274.706 147.116 275.434 146.474 276.075C145.858 276.692 145.142 277 144.328 277C143.49 277 142.762 276.692 142.145 276.075C141.529 275.434 141.22 274.706 141.22 273.892V254.726H111.028V273.892C111.028 274.706 110.708 275.434 110.066 276.075C109.45 276.692 108.734 277 107.92 277ZM169.65 277C167.578 277 166.542 275.964 166.542 273.892V229.936C166.542 227.864 167.578 226.828 169.65 226.828H196.216C198.288 226.828 199.324 227.864 199.324 229.936C199.324 232.008 198.288 233.044 196.216 233.044H172.758V248.584H187.484C189.556 248.584 190.592 249.62 190.592 251.692C190.592 253.764 189.556 254.8 187.484 254.8H172.758V270.784H196.216C198.288 270.784 199.324 271.82 199.324 273.892C199.324 275.964 198.288 277 196.216 277H169.65ZM217.937 277C215.865 277 214.829 275.964 214.829 273.892V229.936C214.829 227.864 215.865 226.828 217.937 226.828C219.294 226.828 220.429 227.494 221.341 228.826L238.805 255.096L237.473 255.318L255.085 228.826C255.924 227.494 257.182 226.828 258.859 226.828C260.537 226.828 261.375 227.864 261.375 229.936V273.892C261.375 275.964 260.339 277 258.267 277C256.195 277 255.159 275.964 255.159 273.892V236.152L257.083 236.818L241.543 259.684C240.631 261.016 239.373 261.682 237.769 261.682C236.659 261.682 235.648 261.016 234.735 259.684L219.195 236.818L221.045 237.336V273.892C221.045 275.964 220.009 277 217.937 277ZM283.569 277C281.497 277 280.461 275.964 280.461 273.892V229.936C280.461 227.864 281.497 226.828 283.569 226.828C284.926 226.828 286.06 227.494 286.973 228.826L304.437 255.096L303.105 255.318L320.717 228.826C321.556 227.494 322.814 226.828 324.491 226.828C326.168 226.828 327.007 227.864 327.007 229.936V273.892C327.007 275.964 325.971 277 323.899 277C321.827 277 320.791 275.964 320.791 273.892V236.152L322.715 236.818L307.175 259.684C306.262 261.016 305.004 261.682 303.401 261.682C302.291 261.682 301.28 261.016 300.367 259.684L284.827 236.818L286.677 237.336V273.892C286.677 275.964 285.641 277 283.569 277ZM349.201 277C347.129 277 346.093 275.964 346.093 273.892V229.936C346.093 227.864 347.129 226.828 349.201 226.828H375.767C377.839 226.828 378.875 227.864 378.875 229.936C378.875 232.008 377.839 233.044 375.767 233.044H352.309V248.584H367.035C369.107 248.584 370.143 249.62 370.143 251.692C370.143 253.764 369.107 254.8 367.035 254.8H352.309V270.784H375.767C377.839 270.784 378.875 271.82 378.875 273.892C378.875 275.964 377.839 277 375.767 277H349.201ZM397.489 277C395.417 277 394.381 275.964 394.381 273.892V229.936C394.381 227.864 395.417 226.828 397.489 226.828H424.055C426.127 226.828 427.163 227.864 427.163 229.936C427.163 232.008 426.127 233.044 424.055 233.044H400.597V248.584H415.323C417.395 248.584 418.431 249.62 418.431 251.692C418.431 253.764 417.395 254.8 415.323 254.8H400.597V270.784H424.055C426.127 270.784 427.163 271.82 427.163 273.892C427.163 275.964 426.127 277 424.055 277H397.489ZM440.818 288.322C439.634 288.322 438.759 287.952 438.191 287.212C437.624 286.472 437.488 285.51 437.784 284.326L452.954 225.422C453.472 223.794 454.484 222.98 455.988 222.98C457.172 222.98 458.048 223.362 458.615 224.127C459.207 224.867 459.318 225.817 458.948 226.976L443.852 285.88C443.408 287.508 442.397 288.322 440.818 288.322ZM471.918 266.418C471.079 264.913 471.425 263.705 472.954 262.792L492.712 251.692V253.764L473.028 242.886C471.474 241.998 471.104 240.765 471.918 239.186C472.831 237.681 474.064 237.336 475.618 238.15L496.486 249.768C497.719 250.483 498.336 251.421 498.336 252.58C498.336 253.986 497.719 255.047 496.486 255.762L475.618 267.454C474.015 268.293 472.781 267.947 471.918 266.418Z" fill="url(#paint0_linear_119_10)"/>
  </g>
  <defs>
    <linearGradient id="paint0_linear_119_10" x1="-7" y1="249" x2="508" y2="249" gradientUnits="userSpaceOnUse">
      <stop stop-color="#6A71FA"/>
      <stop offset="1" stop-color="#B98BF9"/>
    </linearGradient>
    <clipPath id="clip0_119_10">
      <rect width="500" height="500" fill="white"/>
    </clipPath>
  </defs>
</svg>
